HIERARCHY
ROOT Hips
{
 OFFSET 0.000000 0.000000 0.000000
 CHANNELS 6 Xposition Yposition Zposition Yrotation Xrotation Zrotation
 JOINT Chest
 {
  OFFSET 0.000000 9.585900 0.002600
  CHANNELS 3 Yrotation Xrotation Zrotation
  JOINT Chest2
  {
   OFFSET 0.000000 9.601200 -0.005300
   CHANNELS 3 Yrotation Xrotation Zrotation
   JOINT Chest3
   {
    OFFSET 0.000000 9.561800 0.000000
    CHANNELS 3 Yrotation Xrotation Zrotation
    JOINT Chest4
    {
     OFFSET 0.000000 9.552100 0.000000
     CHANNELS 3 Yrotation Xrotation Zrotation
     JOINT Neck
     {
      OFFSET 0.000000 14.453000 0.000000
      CHANNELS 3 Yrotation Xrotation Zrotation
      JOINT Head
      {
       OFFSET 0.000000 8.936500 -0.011300
       CHANNELS 3 Yrotation Xrotation Zrotation
       End Site
       {
        OFFSET 0.000000 17.073600 -0.006000
       }
      }
     }
     JOINT RightCollar
     {
      OFFSET -2.921100 9.558500 0.000000
      CHANNELS 3 Yrotation Xrotation Zrotation
      JOINT RightShoulder
      {
       OFFSET -13.519700 0.000000 0.000000
       CHANNELS 3 Yrotation Xrotation Zrotation
       JOINT RightElbow
       {
        OFFSET 0.000000 -29.696600 0.000000
        CHANNELS 3 Yrotation Xrotation Zrotation
        JOINT RightWrist
        {
         OFFSET 0.000000 -24.004700 0.000000
         CHANNELS 3 Yrotation Xrotation Zrotation
         End Site
         {
          OFFSET 0.000000 -17.728500 0.000000
         }
        }
       }
      }
     }
     JOINT LeftCollar
     {
      OFFSET 2.921100 9.558500 0.000000
      CHANNELS 3 Yrotation Xrotation Zrotation
      JOINT LeftShoulder
      {
       OFFSET 13.519700 0.000000 0.000000
       CHANNELS 3 Yrotation Xrotation Zrotation
       JOINT LeftElbow
       {
        OFFSET 0.000000 -29.696600 0.000000
        CHANNELS 3 Yrotation Xrotation Zrotation
        JOINT LeftWrist
        {
         OFFSET 0.000000 -24.004700 0.000000
         CHANNELS 3 Yrotation Xrotation Zrotation
         End Site
         {
          OFFSET 0.000000 -17.728500 0.000000
         }
        }
       }
      }
     }
    }
   }
  }
 }
 JOINT RightHip
 {
  OFFSET -7.771700 -0.012900 -0.001300
  CHANNELS 3 Yrotation Xrotation Zrotation
  JOINT RightKnee
  {
   OFFSET 0.000000 -40.869800 0.001200
   CHANNELS 3 Yrotation Xrotation Zrotation
   JOINT RightAnkle
   {
    OFFSET 0.000000 -39.717900 0.002100
    CHANNELS 3 Yrotation Xrotation Zrotation
    JOINT RightToe
    {
     OFFSET 0.000000 -4.965400 11.033500
     CHANNELS 3 Yrotation Xrotation Zrotation
     End Site
     {
      OFFSET 0.000000 -1.423100 5.872300
     }
    }
   }
  }
 }
 JOINT LeftHip
 {
  OFFSET 7.771700 -0.012900 -0.001300
  CHANNELS 3 Yrotation Xrotation Zrotation
  JOINT LeftKnee
  {
   OFFSET 0.000000 -40.869800 0.001200
   CHANNELS 3 Yrotation Xrotation Zrotation
   JOINT LeftAnkle
   {
    OFFSET 0.000000 -39.717900 0.002100
    CHANNELS 3 Yrotation Xrotation Zrotation
    JOINT LeftToe
    {
     OFFSET 0.000000 -4.965400 11.033500
     CHANNELS 3 Yrotation Xrotation Zrotation
     End Site
     {
      OFFSET 0.000000 -1.423100 5.872300
     }
    }
   }
  }
 }
}
MOTION
Frames: 8
Frame Time: 0.008333
0.000000 85.388000 0.000000 0.000000 -5.767877 0.000000 0.000000 11.653817 0.000000 0.000000 -5.885947 0.000000 0.000000 -0.000000 0.000000 0.000000 -0.000000 0.000000 0.000000 12.528835 0.000000 0.000000 0.711642 0.000000 0.000000 -0.000000 0.000000 0.000000 0.000000 -90.000000 0.000000 -2.309062 0.000000 0.000000 2.309062 0.000000 0.000000 -0.000000 0.000000 0.000000 -0.000000 90.000000 0.000000 -2.309062 0.000000 0.000000 2.309062 0.000000 0.000000 8.520406 0.000000 0.000000 1.905762 0.000000 -0.000000 -4.658285 0.000000 0.000000 -0.000000 0.000000 0.000000 8.520406 0.000000 0.000000 1.905762 0.000000 -0.000000 -4.658285 0.000000 0.000000 -0.000000 0.000000
-46.679382 62.119983 13.239406 176.861534 -50.852479 0.314572 4.296528 26.629767 0.147844 0.679574 4.497289 -0.041207 1.061534 7.067748 -0.000251 3.365882 21.619194 0.359391 -1.334354 18.701242 -0.916114 -2.154603 -1.069230 -1.254694 5.608562 8.241719 7.182310 -1.097526 -13.005625 -12.843276 -76.913391 -49.281043 121.299557 3.078508 -13.609909 -37.806007 -10.334948 6.379512 -1.184135 -3.283468 -11.356813 18.176284 71.371313 -44.186214 -110.585624 24.557805 -20.124120 13.406602 4.394489 -15.809040 -6.958946 2.827154 62.417908 -1.772186 1.208525 -9.743629 10.783293 0.029852 -0.224547 0.026879 0.595949 -4.928576 7.102785 129.511819 84.372356 137.797245 -5.329014 -17.160201 -9.545538 0.437883 -21.512718 -0.776458
-46.672908 62.117946 13.235989 176.872034 -50.821771 0.274260 4.314373 26.624017 0.171783 0.679420 4.497869 -0.044747 1.064450 7.064887 -0.001760 3.368171 21.613791 0.357159 -1.477268 18.669273 -0.872555 -2.428390 -1.141694 -1.114192 5.630772 8.164237 7.190044 -0.991816 -12.999148 -12.888822 -76.777470 -49.235818 121.214039 3.051192 -13.537829 -37.804841 -10.368822 6.289768 -1.216410 -3.437972 -11.329292 18.279094 71.440815 -44.361477 -110.623587 24.483481 -20.016332 13.424962 4.379865 -15.841565 -6.928593 2.818068 62.416410 -1.771075 1.215155 -9.728081 10.775512 0.028803 -0.226553 0.022409 0.581703 -4.957516 7.137841 129.552580 84.367752 137.836048 -5.307940 -17.167361 -9.541483 0.418608 -21.509967 -0.790269
-46.675153 62.117847 13.229743 176.872830 -50.804218 0.295393 4.310225 26.637470 0.134041 0.678628 4.489217 -0.042775 1.072819 7.100225 -0.029870 3.373172 21.562448 0.392389 -1.616608 18.652385 -0.846828 -2.683636 -1.210101 -0.978562 5.647788 8.113098 7.185713 -0.879129 -13.007017 -12.939514 -76.628803 -49.175318 121.121025 3.016269 -13.459039 -37.783693 -10.400968 6.213275 -1.265060 -3.594634 -11.302578 18.383033 71.494324 -44.515687 -110.661701 24.411853 -19.926653 13.475502 4.383390 -15.860876 -6.955409 2.818513 62.430049 -1.773897 1.220067 -9.721828 10.781433 0.026485 -0.229638 0.015995 0.581131 -4.971814 7.120048 129.582737 84.366574 137.865180 -5.332529 -17.172231 -9.544281 0.436434 -21.514629 -0.781159
-46.674420 62.118067 13.222801 176.880218 -50.788899 0.294672 4.310105 26.648430 0.114519 0.674768 4.469861 -0.031480 1.073960 7.105995 -0.036089 3.375346 21.580370 0.372235 -1.740748 18.614436 -0.795511 -2.920897 -1.267919 -0.846244 5.667711 8.036260 7.201005 -0.767731 -13.016509 -12.992899 -76.467930 -49.097913 121.020812 2.974023 -13.376603 -37.744793 -10.413426 6.154283 -1.256943 -3.760490 -11.309464 18.461291 71.541970 -44.663002 -110.710805 24.334650 -19.856927 13.569082 4.376545 -15.877164 -6.962435 2.815278 62.439437 -1.779884 1.226929 -9.709150 10.788688 0.027459 -0.220538 0.008951 0.572553 -4.981922 7.114998 129.574588 84.364765 137.855367 -5.329978 -17.173660 -9.546440 0.437650 -21.518161 -0.784796
-46.673440 62.120081 13.214081 176.876023 -50.788283 0.302681 4.316569 26.668999 0.095289 0.675309 4.470100 -0.033398 1.073083 7.095362 -0.028455 3.362887 21.614159 0.317468 -1.835253 18.567420 -0.710478 -3.139255 -1.311563 -0.715645 5.703580 7.942653 7.240554 -0.660030 -13.026836 -13.048050 -76.294264 -49.006127 120.919812 2.926966 -13.297515 -37.699290 -10.409598 6.087779 -1.217022 -3.921097 -11.317454 18.537530 71.586132 -44.810280 -110.767875 24.249141 -19.794038 13.710277 4.375496 -15.875695 -6.968866 2.816501 62.446089 -1.780409 1.231796 -9.700842 10.794445 0.028827 -0.221992 0.003666 0.564175 -4.970314 7.104592 129.487802 84.359281 137.762283 -5.316747 -17.178292 -9.552352 0.428574 -21.518948 -0.791344
-46.666557 62.118724 13.208284 176.884409 -50.763994 0.265247 4.326202 26.682971 0.096263 0.674958 4.468990 -0.038355 1.080399 7.077211 -0.015014 3.352745 21.608442 0.305192 -1.934040 18.551625 -0.657419 -3.337622 -1.338615 -0.586436 5.731990 7.879003 7.246481 -0.558840 -13.039131 -13.103284 -76.105365 -48.904322 120.821331 2.876205 -13.224207 -37.655758 -10.460899 5.968680 -1.284219 -4.033033 -11.251514 18.673038 71.633195 -44.967155 -110.829397 24.156354 -19.726675 13.906335 4.355598 -15.899515 -6.935692 2.809853 62.443294 -1.786143 1.239115 -9.687024 10.793924 0.028921 -0.224446 -0.000020 0.549030 -4.988700 7.130340 129.518876 84.353427 137.796062 -5.281639 -17.186543 -9.554888 0.404522 -21.517413 -0.807768
-46.660442 62.117324 13.202576 176.890766 -50.742215 0.234256 4.332794 26.667695 0.114834 0.670878 4.474654 -0.049337 1.070927 7.092432 -0.040924 3.362589 21.589434 0.311130 -2.021272 18.545482 -0.603247 -3.515099 -1.347677 -0.458974 5.763874 7.817441 7.251680 -0.468189 -13.054771 -13.156555 -75.907804 -48.796662 120.722679 2.819253 -13.150804 -37.614616 -10.488314 5.884140 -1.322930 -4.154161 -11.217517 18.781801 71.698983 -45.146042 -110.896673 24.048183 -19.644904 14.158795 4.337190 -15.918520 -6.906908 2.806994 62.438680 -1.790417 1.244038 -9.681765 10.790804 0.023007 -0.213052 0.001715 0.534704 -5.003686 7.144718 129.547751 84.342130 137.840781 -5.271878 -17.203425 -9.571522 0.410662 -21.517090 -0.815497
